<svg width="32" height="24" viewBox="0 0 32 24" fill="none" xmlns="http://www.w3.org/2000/svg">
<rect width="32" height="24" rx="4" fill="white"/>
<rect x="0.5" y="0.5" width="31" height="23" rx="3.5" stroke="black" stroke-opacity="0.1"/>
<mask id="mask0_54951_83" style="mask-type:alpha" maskUnits="userSpaceOnUse" x="8" y="4" width="16" height="16">
<rect x="8" y="4" width="16" height="16" fill="#D9D9D9"/>
</mask>
<g mask="url(#mask0_54951_83)">
<path d="M15.3346 8.00002H14.0013C13.8124 8.00002 13.6541 7.93613 13.5263 7.80835C13.3985 7.68058 13.3346 7.52224 13.3346 7.33335C13.3346 7.14446 13.3985 6.98613 13.5263 6.85835C13.6541 6.73058 13.8124 6.66669 14.0013 6.66669H15.3346V5.33335C15.3346 5.14446 15.3985 4.98613 15.5263 4.85835C15.6541 4.73058 15.8124 4.66669 16.0013 4.66669C16.1902 4.66669 16.3485 4.73058 16.4763 4.85835C16.6041 4.98613 16.668 5.14446 16.668 5.33335V6.66669H18.0013C18.1902 6.66669 18.3485 6.73058 18.4763 6.85835C18.6041 6.98613 18.668 7.14446 18.668 7.33335C18.668 7.52224 18.6041 7.68058 18.4763 7.80835C18.3485 7.93613 18.1902 8.00002 18.0013 8.00002H16.668V9.33335C16.668 9.52224 16.6041 9.68058 16.4763 9.80835C16.3485 9.93613 16.1902 10 16.0013 10C15.8124 10 15.6541 9.93613 15.5263 9.80835C15.3985 9.68058 15.3346 9.52224 15.3346 9.33335V8.00002ZM12.668 18.6667C12.3013 18.6667 11.9874 18.5361 11.7263 18.275C11.4652 18.0139 11.3346 17.7 11.3346 17.3334C11.3346 16.9667 11.4652 16.6528 11.7263 16.3917C11.9874 16.1306 12.3013 16 12.668 16C13.0346 16 13.3485 16.1306 13.6096 16.3917C13.8707 16.6528 14.0013 16.9667 14.0013 17.3334C14.0013 17.7 13.8707 18.0139 13.6096 18.275C13.3485 18.5361 13.0346 18.6667 12.668 18.6667ZM19.3346 18.6667C18.968 18.6667 18.6541 18.5361 18.393 18.275C18.1319 18.0139 18.0013 17.7 18.0013 17.3334C18.0013 16.9667 18.1319 16.6528 18.393 16.3917C18.6541 16.1306 18.968 16 19.3346 16C19.7013 16 20.0152 16.1306 20.2763 16.3917C20.5374 16.6528 20.668 16.9667 20.668 17.3334C20.668 17.7 20.5374 18.0139 20.2763 18.275C20.0152 18.5361 19.7013 18.6667 19.3346 18.6667ZM10.0013 6.66669H9.33464C9.14575 6.66669 8.98741 6.6028 8.85964 6.47502C8.73186 6.34724 8.66797 6.18891 8.66797 6.00002C8.66797 5.81113 8.73186 5.6528 8.85964 5.52502C8.98741 5.39724 9.14575 5.33335 9.33464 5.33335H10.4346C10.5569 5.33335 10.6735 5.36669 10.7846 5.43335C10.8957 5.50002 10.9791 5.59446 11.0346 5.71669L13.6846 11.3334H18.3513L20.768 7.00002C20.8235 6.88891 20.9013 6.80558 21.0013 6.75002C21.1013 6.69446 21.2124 6.66669 21.3346 6.66669C21.5902 6.66669 21.7819 6.77502 21.9096 6.99169C22.0374 7.20835 22.0402 7.4278 21.918 7.65002L19.5346 11.9667C19.4124 12.1889 19.2485 12.3611 19.043 12.4834C18.8374 12.6056 18.6124 12.6667 18.368 12.6667H13.4013L12.668 14H20.0013C20.1902 14 20.3485 14.0639 20.4763 14.1917C20.6041 14.3195 20.668 14.4778 20.668 14.6667C20.668 14.8556 20.6041 15.0139 20.4763 15.1417C20.3485 15.2695 20.1902 15.3334 20.0013 15.3334H12.668C12.168 15.3334 11.7874 15.1167 11.5263 14.6834C11.2652 14.25 11.2569 13.8111 11.5013 13.3667L12.4013 11.7334L10.0013 6.66669Z" fill="#1C1B1F"/>
</g>
</svg>
