<svg width="24" height="24" viewBox="0 0 24 24" fill="none" xmlns="http://www.w3.org/2000/svg">
<mask id="mask0_54951_678" style="mask-type:alpha" maskUnits="userSpaceOnUse" x="0" y="0" width="24" height="24">
<rect width="24" height="24" fill="#D9D9D9"/>
</mask>
<g mask="url(#mask0_54951_678)">
<path d="M8 17H10C10.2833 17 10.5208 16.9042 10.7125 16.7125C10.9042 16.5208 11 16.2833 11 16V14C11 13.7167 10.9042 13.4792 10.7125 13.2875C10.5208 13.0958 10.2833 13 10 13H8C7.71667 13 7.47917 13.0958 7.2875 13.2875C7.09583 13.4792 7 13.7167 7 14V16C7 16.2833 7.09583 16.5208 7.2875 16.7125C7.47917 16.9042 7.71667 17 8 17ZM14 17H16C16.2833 17 16.5208 16.9042 16.7125 16.7125C16.9042 16.5208 17 16.2833 17 16V14C17 13.7167 16.9042 13.4792 16.7125 13.2875C16.5208 13.0958 16.2833 13 16 13H14C13.7167 13 13.4792 13.0958 13.2875 13.2875C13.0958 13.4792 13 13.7167 13 14V16C13 16.2833 13.0958 16.5208 13.2875 16.7125C13.4792 16.9042 13.7167 17 14 17ZM8 11H10C10.2833 11 10.5208 10.9042 10.7125 10.7125C10.9042 10.5208 11 10.2833 11 10V8C11 7.71667 10.9042 7.47917 10.7125 7.2875C10.5208 7.09583 10.2833 7 10 7H8C7.71667 7 7.47917 7.09583 7.2875 7.2875C7.09583 7.47917 7 7.71667 7 8V10C7 10.2833 7.09583 10.5208 7.2875 10.7125C7.47917 10.9042 7.71667 11 8 11ZM14 11H16C16.2833 11 16.5208 10.9042 16.7125 10.7125C16.9042 10.5208 17 10.2833 17 10V8C17 7.71667 16.9042 7.47917 16.7125 7.2875C16.5208 7.09583 16.2833 7 16 7H14C13.7167 7 13.4792 7.09583 13.2875 7.2875C13.0958 7.47917 13 7.71667 13 8V10C13 10.2833 13.0958 10.5208 13.2875 10.7125C13.4792 10.9042 13.7167 11 14 11ZM5 21C4.45 21 3.97917 20.8042 3.5875 20.4125C3.19583 20.0208 3 19.55 3 19V5C3 4.45 3.19583 3.97917 3.5875 3.5875C3.97917 3.19583 4.45 3 5 3H19C19.55 3 20.0208 3.19583 20.4125 3.5875C20.8042 3.97917 21 4.45 21 5V19C21 19.55 20.8042 20.0208 20.4125 20.4125C20.0208 20.8042 19.55 21 19 21H5ZM5 19H19V5H5V19Z" fill="#090F1F" fill-opacity="0.5"/>
</g>
</svg>
