<svg width="20" height="19" viewBox="0 0 20 19" fill="none" xmlns="http://www.w3.org/2000/svg">
<path d="M10 18.325C9.76667 18.325 9.52917 18.2834 9.2875 18.2C9.04583 18.1167 8.83333 17.9834 8.65 17.8L6.925 16.225C5.15833 14.6084 3.5625 13.0042 2.1375 11.4125C0.7125 9.82086 0 8.06669 0 6.15002C0 4.58336 0.525 3.27502 1.575 2.22502C2.625 1.17502 3.93333 0.650024 5.5 0.650024C6.38333 0.650024 7.21667 0.837524 8 1.21252C8.78333 1.58752 9.45 2.10002 10 2.75002C10.55 2.10002 11.2167 1.58752 12 1.21252C12.7833 0.837524 13.6167 0.650024 14.5 0.650024C16.0667 0.650024 17.375 1.17502 18.425 2.22502C19.475 3.27502 20 4.58336 20 6.15002C20 8.06669 19.2917 9.82502 17.875 11.425C16.4583 13.025 14.85 14.6334 13.05 16.25L11.35 17.8C11.1667 17.9834 10.9542 18.1167 10.7125 18.2C10.4708 18.2834 10.2333 18.325 10 18.325ZM9.05 4.75002C8.56667 4.06669 8.05 3.54586 7.5 3.18752C6.95 2.82919 6.28333 2.65002 5.5 2.65002C4.5 2.65002 3.66667 2.98336 3 3.65002C2.33333 4.31669 2 5.15002 2 6.15002C2 7.01669 2.30833 7.93753 2.925 8.91253C3.54167 9.88753 4.27917 10.8334 5.1375 11.75C5.99583 12.6667 6.87917 13.525 7.7875 14.325C8.69583 15.125 9.43333 15.7834 10 16.3C10.5667 15.7834 11.3042 15.125 12.2125 14.325C13.1208 13.525 14.0042 12.6667 14.8625 11.75C15.7208 10.8334 16.4583 9.88753 17.075 8.91253C17.6917 7.93753 18 7.01669 18 6.15002C18 5.15002 17.6667 4.31669 17 3.65002C16.3333 2.98336 15.5 2.65002 14.5 2.65002C13.7167 2.65002 13.05 2.82919 12.5 3.18752C11.95 3.54586 11.4333 4.06669 10.95 4.75002C10.8333 4.91669 10.6917 5.04169 10.525 5.12502C10.3583 5.20836 10.1833 5.25002 10 5.25002C9.81667 5.25002 9.64167 5.20836 9.475 5.12502C9.30833 5.04169 9.16667 4.91669 9.05 4.75002Z" fill="#090F1F"/>
</svg>
